<svg t="1769562830837" class="icon" viewBox="0 0 1024 1024" version="1.1" xmlns="http://www.w3.org/2000/svg" p-id="4357" width="32" height="32"><path d="M240.8704 250.31168H338.9952l217.6 552.41216H464.01024l-53.01248-142.35648H168.07424l-53.01248 142.35648H23.2704l217.6-552.41216z m-46.68416 340.42368h190.69952l-93.37344-249.9072h-3.16416l-94.1568 249.9072zM813.66016 391.89504c60.13952 0 104.448 14.69952 132.93568 44.10368 24.5248 25.52832 37.18656 62.6688 37.18656 111.4112v255.31392H906.24v-56.4736a169.58976 169.58976 0 0 1-59.3408 47.96416c-26.9056 12.38016-58.55744 19.34336-94.95552 19.34336-42.73152 0-75.96544-10.83392-99.70176-31.72352-26.112-20.8896-38.77376-47.96928-38.77376-81.23392 0-44.8768 18.2016-79.6928 54.59968-103.68 33.2288-23.20896 80.70656-34.816 140.84608-36.36224l91.78624-2.31936v-16.24576c0-55.7056-30.85824-83.5584-92.57984-83.5584-26.112 0-47.47264 4.63872-63.29856 13.9264-18.9952 10.8288-30.86336 27.07968-35.6096 49.5104l-83.08224-6.9632c8.704-43.32032 30.85824-75.81696 65.67424-95.93344 30.06976-18.57024 71.2192-27.07968 121.856-27.07968z m87.04 225.92l-86.2464 2.31936c-76.75392 1.54624-114.7392 27.8528-114.7392 77.36832 0 15.47264 6.33344 27.8528 19.78368 37.9136 12.66176 10.05568 30.06976 15.47264 51.43552 15.47264 35.60448 0 65.67424-10.83392 90.99264-31.72352 25.32352-20.8896 38.77376-47.19616 38.77376-78.14144v-23.20896z" fill="#1677ff" p-id="4358"></path></svg>