<svg t="1748049601707" class="icon" viewBox="0 0 1024 1024" version="1.1" xmlns="http://www.w3.org/2000/svg" p-id="21927" width="32" height="32"><path d="M469.331378 0.004267a42.666489 42.666489 0 0 0-42.666489 42.666489v767.9968a42.666489 42.666489 0 0 0 85.332978 0v-767.9968a42.666489 42.666489 0 0 0-42.666489-42.666489z" p-id="21928" fill="#ffffff"></path><path d="M476.158016 0.004267a52.906446 52.906446 0 0 0-41.813159 19.626585 39.25317 39.25317 0 0 0 14.506606 58.879754l328.531965 186.879222a52.053116 52.053116 0 0 0 26.453223 7.679968 52.906446 52.906446 0 0 0 41.813159-17.066596 39.25317 39.25317 0 0 0-14.506606-58.879755L502.611239 6.830905A60.586414 60.586414 0 0 0 476.158016 0.004267z" p-id="21929" fill="#ffffff"></path><path d="M803.836651 191.150137a44.373148 44.373148 0 0 0-20.479915 0L471.891367 324.269582a40.1065 40.1065 0 0 0-23.039904 57.173095 49.493127 49.493127 0 0 0 44.373149 23.893234 62.293074 62.293074 0 0 0 21.333244 0l310.612039-133.119445a40.1065 40.1065 0 0 0 23.039904-57.173095 49.493127 49.493127 0 0 0-44.373148-23.893234zM597.330844 597.335111v85.332978c223.572402 17.066596 341.331911 95.572935 341.331912 124.586147S791.890034 938.667022 511.997867 938.667022 85.332978 843.947417 85.332978 810.667556s85.332978-85.332978 255.998933-114.346191v-85.332977c-198.825838 28.159883-341.331911 106.666222-341.331911 199.679168C0 928.427065 229.54571 1024 511.997867 1024s511.997867-95.572935 511.997866-213.332444S839.676501 617.815026 597.330844 597.335111z" p-id="21930" fill="#ffffff"></path></svg>