<svg t="1748048907129" class="icon" viewBox="0 0 1024 1024" version="1.1" xmlns="http://www.w3.org/2000/svg" p-id="5435" width="32" height="32"><path d="M442.112 583.5264a196.9664 196.9664 0 0 1-18.3296-21.1968c-9.216-12.288-6.656-29.2864 4.1984-40.1408 12.9024-12.9536 35.4816-8.192 46.9504 6.0928q4.9152 6.0416 10.5984 11.776 39.2192 39.2192 94.6688 39.2192 55.3984 0 94.6176-39.2192l96.6656-96.6656q39.168-39.2192 39.168-94.6176 0-55.4496-39.168-94.6176-39.2192-39.2192-94.6176-39.2192-55.4496 0-94.6176 39.2192L509.3376 327.0656a30.72 30.72 0 1 1-43.4688-43.4688l72.9088-72.9088a195.2768 195.2768 0 1 1 276.1216 276.1728l-96.6656 96.6656a195.2768 195.2768 0 0 1-276.1216 0z m139.776-143.104c6.656 6.656 12.8 13.7728 18.3296 21.1456 9.216 12.288 6.656 29.2864-4.1984 40.192-12.9024 12.9024-35.5328 8.1408-47.0016-6.144q-4.864-6.0416-10.5984-11.776-39.168-39.168-94.6176-39.168-55.3984 0-94.6176 39.168l-96.6656 96.6656q-39.2192 39.2192-39.2192 94.6176 0 55.4496 39.2192 94.6176 39.168 39.2192 94.6176 39.2192 55.4496 0 94.6176-39.2192l72.9088-72.8576a30.72 30.72 0 1 1 43.4688 43.4176l-72.9088 72.9088a195.2768 195.2768 0 0 1-276.1728-276.1216l96.6656-96.6656a195.2768 195.2768 0 0 1 276.1728 0z" fill="#2c2c2c" p-id="5436"></path></svg>