<svg t="1759326653403" class="icon" viewBox="0 0 1024 1024" version="1.1" xmlns="http://www.w3.org/2000/svg" p-id="9358" width="200" height="200"><path d="M699.52 128L960 635.84 658.24 832h266.368c20.992 0 32.64 8.448 34.944 25.28L960 864c0 21.312-11.776 32-35.392 32H99.392c-20.992 0-32.64-8.448-34.944-25.28L64 864c0-21.312 11.776-32 35.392-32h111.488L64 541.184 699.52 128zM351.68 446.528L160.64 570.688l123.776 245.248 257.92-0.896 8.896-5.824-199.616-362.688z m321.92-209.28l-257.92 167.552 0.512 0.896 199.168 361.856 247.68-160.96-189.44-369.28z" p-id="9359" fill="#ffffff"></path></svg>