<svg t="1770290142275" class="icon" viewBox="0 0 1024 1024" version="1.1" xmlns="http://www.w3.org/2000/svg" p-id="5933" width="32" height="32"><path d="M544 64a64 64 0 0 1 64 64h96a64 64 0 0 1 64 64v160h96a64 64 0 0 1 63.84 59.2L928 416v480a64 64 0 0 1-64 64H480a64 64 0 0 1-64-64H128a64 64 0 0 1-64-64V192a64 64 0 0 1 64-64h96a64 64 0 0 1 64-64h256z m320 832V416H480v480h384zM224 192H128v640h288V416a64 64 0 0 1 59.2-63.84L480 352h224V192h-96a64 64 0 0 1-64 64H288a64 64 0 0 1-64-64z m320-64H288v64h256V128z" p-id="5934" fill="#ffffff"></path></svg>