<svg t="1747048699884" class="icon" viewBox="0 0 1024 1024" version="1.1" xmlns="http://www.w3.org/2000/svg" p-id="2155" width="32" height="32"><path d="M67 512C67 266.2 266.2 67 512 67s445 199.2 445 445-199.2 445-445 445S67 757.8 67 512z m230.2-30.7c-17.1 0-30.7 13.7-30.7 30.7 0 17.1 13.8 30.7 30.7 30.7h429.6c17.1 0 30.7-13.7 30.7-30.7 0-17.1-13.8-30.7-30.7-30.7H297.2zM895.6 512c0-211.9-171.8-383.6-383.6-383.6S128.4 300.1 128.4 512 300.1 895.6 512 895.6 895.6 723.9 895.6 512z" fill="#2c2c2c" p-id="2156"></path></svg>