<svg t="1774851889596" class="icon" viewBox="0 0 1024 1024" version="1.1" xmlns="http://www.w3.org/2000/svg" p-id="23781" width="32" height="32"><path d="M677.790954 372.412848c-3.920286-41.885969-20.420075-74.207096-49.499367-96.965425-29.080316-22.751167-68.175729-34.130332-117.294426-34.130332-50.630121 0-89.055269 9.797134-115.27442 29.383214-26.219151 19.594267-39.321564 48.221258-39.321564 85.890182 0 25.618471 8.736988 44.753273 26.219151 57.410548 17.475 12.657274 52.586682 25.166169 105.33607 37.520545l115.740024 27.575032c62.086034 14.769378 106.387006 36.616966 132.918265 65.547879 26.621311 28.634154 39.935548 69.164243 39.935548 121.602545 0 60.278875-22.843264 108.041692-68.514443 143.301753-45.672202 35.260062-107.552551 52.890604-185.631838 52.890604-86.830601 0-154.666592-20.342304-203.502857-61.027935-47.635927-40.077787-71.453379-94.932116-71.453379-164.547637l0-4.972245 82.72612 0c1.50426 48.221258 18.993586 85.438904 52.473095 111.658056 33.480532 26.219151 80.077803 39.328727 139.79079 39.328727 55.18588 0 97.107665-9.493212 125.756145-28.479635 28.64848-18.986423 42.979884-46.859237 42.979884-83.630722 0-31.94148-9.422603-55.602366-28.26781-70.972425-18.709107-15.066137-56.428174-29.383214-113.146966-42.945091l-115.867938-27.575032c-58.541301-13.857613-100.32801-33.148981-125.368312-57.862849-24.919553-24.707728-37.372166-58.915831-37.372166-102.616122 0-63.584154 21.614274-113.988124 64.841797-151.212934 43.228547-37.216623 101.592816-55.828516 175.09383-55.828516 74.702376 0 134.197398 18.689664 178.484044 56.054667 44.279483 37.372166 67.928089 88.906889 70.943772 154.603147L677.790954 372.412848z" p-id="23782" fill="#ffffff"></path></svg>