<svg t="1741943310883" class="icon" viewBox="0 0 1024 1024" version="1.1" xmlns="http://www.w3.org/2000/svg" p-id="12001" width="32" height="32"><path d="M512 512m-140 0a140 140 0 1 0 280 0 140 140 0 1 0-280 0Z" p-id="12002" fill="#2c2c2c"></path><path d="M543 64h-64a8 8 0 0 0-8 8v122.6c-144.28 18.46-258.51 133-276.52 277.4H73a8 8 0 0 0-8 8v64a8 8 0 0 0 8 8h121.48c18 144.41 132.24 258.94 276.52 277.4V952a8 8 0 0 0 8 8h64a8 8 0 0 0 8-8V829.63C696.22 812 811.42 697.08 829.52 552H952a8 8 0 0 0 8-8v-64a8 8 0 0 0-8-8H829.52C811.42 326.92 696.22 212 551 194.37V72a8 8 0 0 0-8-8z m-31 688a240 240 0 1 1 169.71-70.29A238.43 238.43 0 0 1 512 752z" p-id="12003" fill="#2c2c2c"></path></svg>