<svg t="1756863110473" class="icon" viewBox="0 0 1024 1024" version="1.1" xmlns="http://www.w3.org/2000/svg" p-id="1279" width="32" height="32"><path d="M661.632 397.248a34.368 34.368 0 0 1 2.304 45.952l-2.304 2.624-539.008 539.008a34.368 34.368 0 0 1-51.008-46.016l2.368-2.56 539.008-539.008a34.368 34.368 0 0 1 48.64 0z m-15.04 160c17.856 0 32.512 13.632 34.176 31.04l0.192 3.328v134.464a34.368 34.368 0 0 1-68.608 3.328l-0.128-3.264V591.616c0-19.008 15.36-34.368 34.368-34.368z m148.48-44.8l2.624 2.304 95.104 95.104a34.368 34.368 0 0 1-45.952 51.008l-2.56-2.368-95.168-95.104a34.368 34.368 0 0 1 45.952-51.008z m165.376-134.592a34.368 34.368 0 0 1 3.328 68.608l-3.328 0.192h-134.528a34.368 34.368 0 0 1-3.264-68.608l3.264-0.192h134.528z m-493.184 0a34.368 34.368 0 0 1 3.264 68.608l-3.264 0.192H332.736a34.368 34.368 0 0 1-3.328-68.608l3.264-0.192H467.2z m425.6-211.84c12.544 12.544 13.312 32.448 2.304 45.952l-2.368 2.624-95.104 95.104a34.368 34.368 0 0 1-50.944-45.952l2.368-2.624 95.104-95.104c13.44-13.44 35.2-13.44 48.64 0z m-446.528-2.432l2.56 2.368L544.128 261.12a34.368 34.368 0 0 1-46.016 50.944l-2.56-2.368-95.168-95.104a34.368 34.368 0 0 1 46.016-51.008zM646.592 64c17.856 0 32.512 13.632 34.176 31.04l0.192 3.328V232.96a34.368 34.368 0 0 1-68.608 3.328l-0.128-3.328V98.368c0-19.008 15.36-34.368 34.368-34.368z" p-id="1280" fill="#2c2c2c"></path></svg>