<svg t="1769081997563" class="icon" viewBox="0 0 1024 1024" version="1.1" xmlns="http://www.w3.org/2000/svg" p-id="3396" width="32" height="32">
  <path d="M138.752 768.256a32 32 0 1 0-64 0h64zM949.504 768a32 32 0 0 0-64 0h64z m-874.752 0.256v42.496h64v-42.496h-64z m160 160h554.752v-64H234.752v64z m714.752-117.504V768h-64v42.752h64z m-160 117.504c88.32 0 160-29.12 160-117.504h-64c0 52.992-43.008 53.504-96 53.504v64zM74.752 810.752c0 88.32 71.68 117.504 160 117.504v-64c-52.992 0-96-0.512-96-53.504h-64zM385.6 524.16l-30.4 1.536q-14.4 0.832-28.416 1.984-13.952 1.28-25.152 2.816-57.6 7.232-81.664 25.216-23.936 17.984-23.936 51.584 0 28.032 17.152 41.984 17.216 14.08 45.248 14.08 38.4 0 68.352-13.248 30.016-13.184 58.816-34.816V524.16z m-0.768 147.2q-37.632 21.568-70.016 34.752-32.384 13.184-70.016 13.184-53.568 0-85.184-25.984T128 607.296q0-31.168 16-54.4 16-23.168 41.984-38.784t58.816-24.384q32.832-8.832 67.2-11.2 14.4-1.6 37.632-2.816l35.968-1.984q0-28.032-1.6-50.048-1.6-21.952-9.6-37.568-8-15.616-23.616-23.616t-44.352-8q-23.232 0-44.8 2.816-21.632 2.816-38.4 6.016-4.48 0.832-8.704 1.792a29.12 29.12 0 0 1-34.688-21.44 26.816 26.816 0 0 1 20.672-32.64l16.32-2.944q19.968-3.968 46.336-6.784 26.432-2.816 56.832-2.816 40.832 0 65.984 12.032 25.216 11.968 39.232 32.384 14.016 20.416 19.2 46.4 5.184 25.984 5.184 54.784v192q0 11.2 0.384 23.616t1.6 24.384v0.256a24.704 24.704 0 0 1-22.016 27.136l-7.488 0.768a31.808 31.808 0 0 1-34.56-25.92l-2.688-15.04z m205.184-564.864a32 32 0 0 1 35.584 31.808v202.624q17.6-12.032 36.8-20.8 16-8 36.032-14.848 19.968-6.784 40-6.784 32.768 0 61.952 12.8 29.248 12.8 51.2 38.4 22.016 25.6 34.816 64.832 12.8 39.168 12.8 92.8 0 59.2-16.384 99.584-16.448 40.384-44.032 65.216-27.584 24.768-62.784 35.968-35.2 11.2-72 11.2t-63.616-5.184q-26.752-5.184-44.352-11.584-20.8-8-34.432-17.6V138.24a32 32 0 0 1 28.416-31.808m35.584 543.232q10.368 3.968 22.4 6.784 12.032 2.816 25.984 4.8 14.016 1.984 30.016 1.984 36.8 0 61.632-10.368 24.768-10.432 39.168-30.4 14.4-20.032 20.416-48.448 6.016-28.352 6.016-63.552 0-28.032-6.016-56-6.016-28.032-18.816-50.048-12.8-21.952-31.616-35.968-18.752-14.016-43.584-14.016-16.768 0-35.2 6.784-18.368 6.848-34.368 15.616-18.432 9.6-36.032 21.632v251.2z" p-id="3397" fill="#4096ff"></path>
</svg>