<svg t="1721734789608" class="icon" viewBox="0 0 1024 1024" version="1.1" xmlns="http://www.w3.org/2000/svg" p-id="14453" width="64" height="64"><path d="M832 320v85.333333h42.666667V810.666667h-42.666667v74.678857c0 17.65181-14.336 31.98781-32.01219 31.987809H224.036571a31.98781 31.98781 0 0 1-32.01219-32.01219V810.666667h-42.666667V405.333333h42.666667V138.654476c0-17.65181 14.336-31.98781 32.01219-31.987809h394.654477l213.333333 213.333333z m-98.986667-15.993905l-98.352762-98.377143v98.377143h98.377143z m-157.013333-138.678857H250.660571v240.006095H773.36381v-42.666666h-197.339429V165.327238zM250.660571 810.666667v48.006095H773.36381V810.666667H250.63619z m350.110477-238.933334a17.554286 17.554286 0 0 1 6.753523 12.970667h35.913143a45.592381 45.592381 0 0 0-7.509333-25.453714 48.128 48.128 0 0 0-20.675048-17.066667c-8.850286-4.071619-19.260952-6.119619-31.305143-6.119619-11.751619 0-22.235429 2.023619-31.451428 6.046476a51.346286 51.346286 0 0 0-21.577143 16.896 41.642667 41.642667 0 0 0-7.728762 25.234286c-0.048762 11.776 3.803429 21.113905 11.532191 28.038095 7.728762 6.875429 18.285714 11.849143 31.744 14.921143l16.213333 3.779048c5.656381 1.316571 10.288762 2.755048 13.921524 4.315428a20.675048 20.675048 0 0 1 8.192 5.461334c1.755429 2.072381 2.681905 4.583619 2.730666 7.509333a13.409524 13.409524 0 0 1-2.950095 8.338286 18.70019 18.70019 0 0 1-8.289524 5.680761 35.888762 35.888762 0 0 1-12.848762 2.02362c-5.510095 0-10.361905-0.853333-14.555428-2.56a22.040381 22.040381 0 0 1-9.752381-7.558096 23.576381 23.576381 0 0 1-4.047238-12.531809h-35.888762c0.146286 12.141714 2.901333 22.162286 8.240762 30.086095 5.36381 7.92381 12.873143 13.848381 22.503619 17.724952 9.654857 3.900952 20.967619 5.851429 33.938286 5.851429 12.921905 0 23.966476-1.877333 33.109333-5.607619 9.191619-3.754667 16.237714-9.142857 21.138286-16.140191 4.900571-7.021714 7.387429-15.433143 7.43619-25.234285a44.568381 44.568381 0 0 0-3.169524-16.822857 38.375619 38.375619 0 0 0-9.191619-13.263239 54.808381 54.808381 0 0 0-14.848-9.923047 93.866667 93.866667 0 0 0-20.309333-6.656l-13.312-3.047619a75.385905 75.385905 0 0 1-9.557333-2.633143 34.840381 34.840381 0 0 1-7.265524-3.486476 15.384381 15.384381 0 0 1-4.559238-4.705524 11.166476 11.166476 0 0 1-1.365334-6.144 12.629333 12.629333 0 0 1 2.511238-7.484952 15.798857 15.798857 0 0 1 7.265524-5.241905c3.242667-1.243429 7.265524-1.877333 12.117334-1.877334 7.314286 0 12.970667 1.560381 16.896 4.705524z m127.878095 15.457524l-28.330667-49.005714H658.041905l46.884571 77.58019-48.103619 77.55581h42.73981l29.086476-49.542095h1.219047l29.086477 49.542095h43.032381l-48.347429-77.55581 46.811429-77.58019H758.491429l-28.623239 49.005714h-1.219047z m-324.315429 106.154667h102.034286v-30.476191h-64.536381v-124.68419h-37.497905v155.136z m-89.088-106.154667l-28.330666-49.005714h-42.276572l46.908953 77.58019-48.103619 77.55581h42.715428l29.086476-49.542095h1.219048l29.086476 49.542095h43.032381l-48.323048-77.55581 46.811429-77.58019h-41.959619l-28.647619 49.005714h-1.219048z" p-id="14454" fill="#ffffff"></path></svg>