<svg t="1771314958615" class="icon" viewBox="0 0 1024 1024" version="1.1" xmlns="http://www.w3.org/2000/svg" p-id="4827" width="48" height="48"><path d="M853.333 54c40.823 0 73.998 32.754 74.657 73.415l0.01 1.235v767.7c0 40.82-32.766 73.98-73.432 74.64l-1.235 0.01H256c-40.822 0-73.997-32.754-74.657-73.415l-0.01-1.235V736.425H128c-17.496 0-31.713-14.042-31.996-31.47l-0.004-0.53v-383.85c0-17.673 14.327-32 32-32h53.333V128.65c0-40.819 32.767-73.98 73.432-74.64L256 54h597.333z m0 64H256c-5.799 0-10.512 4.618-10.663 10.366l-0.004 0.284v159.925H512c17.496 0 31.713 14.042 31.996 31.47l0.004 0.53v383.85c0 17.673-14.327 32-32 32H245.333V896.35c0 5.785 4.62 10.496 10.383 10.646L256 907h597.333c5.8 0 10.513-4.618 10.663-10.366l0.004-0.284v-767.7c0-5.785-4.62-10.496-10.382-10.646l-0.285-0.004zM768 629.775c17.673 0 32 14.327 32 32 0 17.496-14.042 31.713-31.47 31.996l-0.53 0.004H640c-17.673 0-32-14.327-32-32 0-17.496 14.042-31.713 31.47-31.996l0.53-0.004h128zM213.228 352.574l-53.228 0.001v319.85h320v-319.85H213.333l-0.105-0.001z m65.018 72.948l0.377 0.371L320 467.254l41.377-41.36c12.5-12.495 32.76-12.491 45.255 0.008 12.37 12.374 12.489 32.356 0.362 44.878l-0.371 0.377-41.361 41.343 41.361 41.343c12.5 12.494 12.503 32.756 0.009 45.255-12.37 12.374-32.351 12.502-44.878 0.38l-0.377-0.371L320 557.745l-41.377 41.362c-12.5 12.494-32.76 12.49-45.255-0.009-12.37-12.374-12.489-32.356-0.362-44.878l0.371-0.377 41.36-41.343-41.36-41.343c-12.5-12.494-12.503-32.756-0.009-45.255 12.37-12.374 32.351-12.502 44.878-0.38zM768 459.175c17.673 0 32 14.327 32 32 0 17.496-14.042 31.713-31.47 31.996l-0.53 0.004H640c-17.673 0-32-14.327-32-32 0-17.496 14.042-31.713 31.47-31.996l0.53-0.004h128z m0-170.6c17.673 0 32 14.327 32 32 0 17.496-14.042 31.713-31.47 31.996l-0.53 0.004h-64c-17.673 0-32-14.327-32-32 0-17.496 14.042-31.713 31.47-31.996l0.53-0.004h64z" p-id="4828" fill="#000000"></path></svg>